<?xml version="1.0" standalone="no"?>
<!DOCTYPE svg PUBLIC "-//W3C//DTD SVG 20010904//EN"
 "http://www.w3.org/TR/2001/REC-SVG-20010904/DTD/svg10.dtd">
<svg version="1.0" xmlns="http://www.w3.org/2000/svg"
 width="1024.000000pt" height="1024.000000pt" viewBox="0 0 1024.000000 1024.000000"
 preserveAspectRatio="xMidYMid meet">

<g transform="translate(0.000000,1024.000000) scale(0.100000,-0.100000)"
fill="#000000" stroke="none">
<path d="M0 5120 l0 -5120 5120 0 5120 0 0 5120 0 5120 -5120 0 -5120 0 0
-5120z m6268 4788 c-2 -62 -7 -93 -15 -96 -10 -3 -13 20 -13 92 0 80 3 96 15
96 13 0 15 -15 13 -92z m229 -208 c17 -230 18 -505 18 -4610 0 -4121 -1 -4378
-18 -4605 -10 -132 -20 -241 -21 -242 -13 -13 -16 930 -17 4857 -1 3836 3
4946 17 4860 2 -8 11 -125 21 -260z m-310 104 c-3 -30 -11 -62 -17 -69 -11
-13 -92 -35 -130 -35 -19 0 -19 2 3 51 18 41 32 56 72 79 74 42 79 40 72 -26z
m103 -1278 c-5 -5 -12 -7 -15 -5 -2 3 -5 281 -5 618 -1 488 2 616 12 628 11
13 13 -96 16 -607 1 -402 -1 -627 -8 -634z m-70 709 l0 -474 -37 -10 c-21 -6
-53 -20 -72 -31 -18 -12 -36 -18 -39 -15 -12 12 16 40 66 64 l52 26 -2 185 -2
185 -6 -174 -5 -175 -95 -49 c-52 -26 -116 -62 -142 -78 l-48 -29 0 76 0 75
91 103 c101 116 124 146 111 146 -5 0 -17 -10 -28 -21 -18 -21 -114 -97 -143
-114 -11 -6 -13 5 -7 66 3 41 11 182 16 314 6 132 13 263 16 290 l5 50 77 2
c71 2 113 16 190 62 1 0 2 -213 2 -474z m-325 217 c-8 -34 -12 -68 -9 -75 3
-8 0 -59 -5 -115 -11 -108 -15 -118 -223 -599 -69 -159 -71 -163 -107 -173
-20 -5 -41 -10 -48 -10 -7 0 7 41 34 98 25 53 71 158 103 232 32 74 74 173 95
220 108 246 133 307 139 330 8 32 -86 -161 -129 -265 -51 -124 -257 -595 -274
-625 -4 -8 -22 -20 -40 -27 -32 -13 -32 -13 -17 9 8 13 39 79 69 148 150 344
359 807 404 893 21 42 24 29 8 -41z m-485 -1100 c-79 -61 -176 -169 -208 -232
-123 -245 -80 -536 109 -735 110 -116 267 -184 429 -186 97 -2 48 -16 -60 -18
-201 -2 -419 143 -516 344 -96 200 -96 399 -1 595 46 96 129 187 213 232 63
34 78 34 34 0z m105 -11 c-59 -27 -171 -118 -160 -129 3 -3 15 4 28 15 30 27
172 90 222 98 l40 6 -46 -19 c-81 -33 -155 -81 -196 -125 -49 -53 -111 -162
-118 -208 -5 -31 -4 -30 13 12 39 95 113 180 203 232 40 24 225 64 237 52 2
-2 -13 -7 -34 -10 -111 -18 -173 -46 -244 -112 -99 -92 -131 -161 -138 -292
-5 -115 7 -181 51 -264 55 -105 156 -175 291 -204 108 -22 215 0 313 64 71 47
110 94 151 182 99 215 10 496 -187 594 -66 32 -41 36 32 5 79 -33 133 -74 183
-136 55 -70 83 -127 94 -189 7 -46 8 -47 9 -11 4 123 -149 320 -304 395 -38
18 -56 30 -40 27 119 -25 256 -139 319 -265 45 -90 60 -163 54 -274 -4 -80
-10 -101 -46 -179 -86 -183 -223 -271 -482 -310 l-95 -15 123 3 c140 2 141 -6
2 -23 -230 -28 -409 52 -533 239 -63 96 -89 180 -95 305 -7 174 31 289 133
402 51 58 136 117 204 144 72 28 82 22 16 -10z m534 -17 c36 -20 83 -50 104
-67 79 -62 162 -203 186 -315 46 -219 -56 -475 -233 -583 l-51 -31 61 63 c104
109 172 235 194 361 35 189 -96 451 -280 563 -56 34 -69 45 -53 45 3 0 36 -16
72 -36z m-356 9 c-7 -2 -21 -2 -30 0 -10 3 -4 5 12 5 17 0 24 -2 18 -5z m940
-3318 c1 -1713 -3 -2945 -9 -3055 l-10 -185 -9 310 c-13 404 -13 5336 0 5780
l9 340 10 -160 c5 -95 9 -1334 9 -3030z m-797 3160 c154 -45 258 -189 257
-355 -1 -176 -106 -309 -279 -356 -55 -14 -74 -15 -134 -5 -173 28 -286 135
-319 301 -34 172 75 352 250 414 56 19 161 20 225 1z m-612 -815 c12 -22 13
-118 9 -598 l-6 -572 -23 0 c-12 0 -29 -3 -38 -6 -15 -6 -16 54 -16 632 l0
638 30 -34 c17 -19 37 -46 44 -60z m131 -199 c0 -73 8 -84 19 -26 8 40 23 50
61 41 l25 -6 0 -283 c0 -155 5 -336 10 -402 19 -221 69 -459 135 -642 20 -53
33 -94 30 -92 -11 12 -94 189 -128 275 -155 393 -187 549 -194 964 l-5 285 24
-23 c20 -19 23 -32 23 -91z m905 -133 c0 -35 -3 -128 -7 -208 l-8 -145 -6 90
c-4 50 -7 143 -8 208 -1 98 1 117 14 117 12 0 15 -14 15 -62z m-259 -158 l167
-5 6 -325 c5 -310 5 -324 -12 -300 -9 13 -48 65 -85 115 -101 132 -183 276
-218 380 -15 47 -33 72 -25 35 3 -14 13 -68 22 -120 8 -52 26 -140 39 -195 21
-90 34 -133 89 -309 24 -77 0 -40 -59 92 -62 138 -106 273 -134 412 -17 79
-41 242 -41 272 0 5 19 -4 42 -19 40 -27 47 -28 209 -33z m-895 -195 c-4 -17
-29 -62 -57 -100 -65 -90 -120 -188 -136 -245 -13 -44 -13 -44 -8 33 3 43 10
90 16 104 16 44 3 36 -26 -14 -58 -102 -68 -146 -72 -318 -6 -192 12 -375 62
-661 36 -202 130 -577 120 -477 -35 340 -43 539 -26 628 9 50 17 30 26 -70 4
-38 13 -99 20 -135 32 -149 66 -372 86 -570 6 -63 18 -155 25 -205 l13 -90 -5
120 c-3 66 -9 192 -13 280 -4 88 -4 203 0 255 4 52 11 175 15 273 4 97 10 177
13 177 4 0 14 -12 23 -27 11 -21 17 -69 22 -178 16 -364 54 -551 124 -618 15
-15 77 -53 137 -85 l110 -59 8 -189 c4 -104 11 -232 15 -284 7 -90 8 -81 22
177 l15 271 40 -27 c58 -39 58 -17 -4 -691 -60 -644 -72 -869 -72 -1372 0
-224 -4 -410 -8 -413 -11 -6 -21 45 -21 111 0 59 -41 503 -65 704 -23 188 -49
341 -121 710 -36 184 -83 446 -104 581 -21 136 -41 259 -44 275 -9 56 5 -308
19 -484 27 -324 44 -604 55 -892 13 -344 27 -833 23 -839 -1 -2 -5 5 -9 15 -3
10 -65 156 -136 324 -148 345 -256 623 -283 724 -11 38 -20 65 -22 59 -2 -6
10 -64 26 -129 45 -179 76 -327 131 -632 57 -314 112 -583 142 -690 10 -40 18
-82 16 -95 -2 -12 -36 95 -77 238 -40 143 -86 303 -101 355 -50 169 -168 571
-215 735 -121 420 -212 840 -249 1150 -9 72 -17 144 -19 160 -11 88 -5 -83 8
-240 27 -323 36 -407 71 -655 62 -432 147 -781 301 -1228 31 -89 54 -164 52
-166 -9 -8 -205 -15 -215 -9 -9 7 -75 184 -233 631 -87 245 -81 175 -81 952
l0 692 21 -5 22 -6 -8 220 -7 219 75 0 c75 0 94 -8 95 -40 1 -34 44 -260 63
-330 32 -118 77 -237 128 -334 45 -87 163 -245 189 -254 8 -2 -9 24 -38 59
-105 131 -199 330 -236 501 -17 79 -55 360 -50 366 2 1 12 -12 23 -30 12 -20
29 -88 42 -167 37 -223 97 -403 171 -512 49 -71 99 -129 111 -129 11 0 4 129
-22 390 -23 234 -37 311 -89 495 -111 401 -201 1067 -171 1277 18 131 50 185
265 454 l81 102 3 -47 c2 -25 1 -60 -2 -76z m-17 -492 c15 -36 18 -280 4 -294
-7 -7 -13 33 -18 135 -4 80 -10 146 -14 146 -4 0 -6 -65 -6 -145 l2 -145 -29
0 -28 0 0 143 c0 113 3 147 16 165 22 31 59 29 73 -5z m744 -247 c3 -8 11 -61
17 -118 6 -56 15 -141 20 -187 5 -47 8 -86 6 -88 -5 -5 -62 113 -101 207 -53
127 -75 184 -75 192 0 4 29 8 64 8 46 0 65 -4 69 -14z m267 -206 c0 -224 -9
-271 -30 -162 -22 111 -25 113 -40 28 l-13 -78 -19 49 c-20 50 -101 309 -112
354 l-6 27 110 1 110 2 0 -221z m-887 160 c15 0 17 -12 17 -120 l0 -120 -40
40 -40 40 0 86 c0 85 0 86 23 80 12 -3 30 -6 40 -6z m1004 -417 c-1 -54 -3
-12 -3 92 0 105 2 149 3 98 2 -51 2 -136 0 -190z m-832 117 c-28 -12 -133 -12
-140 0 -4 6 24 10 77 9 56 0 76 -3 63 -9z m-76 -267 c6 -71 21 -197 32 -281
24 -182 23 -201 -9 -150 -35 57 -69 208 -81 364 -16 201 -16 194 17 194 l29 0
12 -127z m165 95 c3 -18 19 -121 36 -228 17 -107 35 -224 41 -260 16 -105 17
-110 8 -110 -14 0 -31 50 -112 320 -104 349 -100 310 -34 310 55 0 56 0 61
-32z m506 -100 c0 -73 3 -217 7 -320 l6 -188 -129 0 -129 0 -23 118 c-20 100
-102 452 -118 505 -5 16 9 17 190 17 l196 0 0 -132z m127 -306 l2 -427 -20 95
c-17 80 -21 146 -26 428 l-5 332 23 0 24 0 2 -428z m-1797 -269 c-1 -140 -3
-161 -19 -180 -11 -13 -22 -23 -25 -23 -8 0 -8 345 1 353 3 4 15 7 25 7 17 0
18 -11 18 -157z m1880 -6 c0 -7 12 -34 25 -62 l25 -50 0 -786 c0 -802 -8
-1318 -20 -1284 -9 27 -20 -66 -21 -195 -2 -102 -2 -103 -11 -45 -31 206 -37
2458 -7 2439 5 -3 9 -11 9 -17z m-367 -184 c40 -53 50 -104 42 -208 -14 -194
-72 -515 -135 -750 -25 -92 -29 -101 -24 -55 22 240 66 801 71 913 3 75 9 137
12 137 3 -1 18 -17 34 -37z m182 -740 c-35 -471 -54 -756 -65 -938 -17 -301
-18 -299 -14 25 4 316 36 786 71 1050 24 182 28 127 8 -137z m25 -680 c-7
-197 -15 -360 -17 -363 -7 -7 5 600 13 673 14 129 16 30 4 -310z m-1182 -950
c-16 -2 -40 -2 -55 0 -16 2 -3 4 27 4 30 0 43 -2 28 -4z m742 -86 c-128 -49
-243 -132 -311 -224 -104 -140 -144 -295 -122 -472 31 -247 175 -423 428 -523
76 -30 75 -34 -7 -17 -72 16 -166 63 -235 118 -83 67 -145 153 -183 257 -29
80 -33 103 -38 224 -5 156 6 214 64 336 70 148 234 280 396 320 93 22 96 14 8
-19z m-505 -109 c31 -73 59 -138 62 -144 3 -9 -31 -12 -120 -13 l-125 -2 -44
123 c-25 68 -48 133 -52 146 -7 22 -7 22 107 22 l114 0 58 -132z m560 58 c-47
-15 -152 -68 -180 -91 -14 -11 -7 -9 23 5 58 28 230 53 312 45 153 -14 232
-50 340 -152 170 -160 209 -415 98 -626 -39 -72 -147 -176 -219 -209 -82 -39
-192 -61 -301 -62 -115 -1 -105 -17 14 -24 93 -5 94 -22 2 -22 -114 0 -243 38
-314 92 -162 124 -240 284 -240 493 0 119 14 177 66 275 70 133 197 234 345
274 66 18 109 19 54 2z m541 -161 c178 -175 223 -426 118 -653 -41 -91 -148
-201 -240 -250 -69 -36 -97 -43 -45 -11 64 39 161 133 206 199 63 92 87 165
93 280 9 215 -68 356 -298 543 -35 29 -35 29 30 -4 40 -21 93 -61 136 -104z
m-1107 -109 c-11 -9 -149 -15 -149 -6 0 6 32 10 77 10 42 0 74 -2 72 -4z m-13
-211 c-9 -105 6 -217 42 -325 32 -94 38 -54 -47 -325 l-40 -130 -109 -102
c-60 -56 -117 -118 -127 -139 -17 -35 -41 -182 -31 -191 2 -2 21 25 41 61 39
70 51 84 34 39 -23 -61 -56 -106 -102 -139 l-48 -35 2 286 c1 197 5 290 13
297 6 5 52 27 101 48 l90 38 3 51 c2 28 1 51 -1 51 -2 0 -64 -25 -138 -56 -74
-31 -142 -58 -151 -61 -15 -4 -18 -17 -18 -63 0 -57 0 -57 40 -75 43 -20 42
-17 40 -125 -1 -55 -4 -68 -24 -85 -46 -39 -184 -145 -189 -145 -3 0 -6 179
-6 398 l0 399 62 45 c34 25 131 89 216 144 85 54 198 127 250 161 53 34 98 62
100 62 2 1 1 -37 -3 -84z m149 -727 c-191 -174 -222 -209 -238 -268 -9 -30
-22 -77 -31 -105 -14 -47 -15 -48 -10 -10 8 63 36 188 45 207 16 29 293 256
314 257 6 0 -30 -36 -80 -81z"/>
<path d="M5966 9488 c-10 -124 -16 -441 -6 -368 10 81 24 440 17 440 -2 0 -7
-33 -11 -72z"/>
<path d="M5271 7924 c0 -11 3 -14 6 -6 3 7 2 16 -1 19 -3 4 -6 -2 -5 -13z"/>
<path d="M6252 7778 c-29 -203 -164 -347 -382 -407 -41 -12 -87 -21 -102 -21
-15 0 -30 -4 -33 -10 -8 -13 56 -13 130 1 80 15 173 58 224 105 58 52 124 147
148 214 18 49 41 200 31 200 -2 0 -9 -37 -16 -82z"/>
<path d="M5614 8119 c-68 -26 -138 -89 -172 -153 -23 -44 -27 -63 -27 -141 0
-106 19 -155 86 -223 66 -66 138 -97 229 -96 89 0 145 22 210 80 131 118 135
338 10 464 -87 86 -220 114 -336 69z m168 -256 c36 -33 13 -92 -36 -93 -25 0
-56 28 -56 51 0 21 37 59 59 59 8 0 23 -7 33 -17z"/>
<path d="M6122 6645 c0 -104 3 -212 8 -240 5 -34 8 14 8 145 0 107 -3 215 -7
240 -6 30 -9 -18 -9 -145z"/>
<path d="M5031 4650 c-2 -33 53 -620 58 -620 13 0 -9 300 -35 500 -15 115 -22
149 -23 120z"/>
<path d="M5271 4618 c-3 -66 104 -726 116 -715 3 4 -68 480 -96 637 -10 58
-19 93 -20 78z"/>
<path d="M5953 5290 c0 -41 2 -58 4 -37 2 20 2 54 0 75 -2 20 -4 3 -4 -38z"/>
<path d="M5647 1974 c-101 -24 -90 -29 71 -29 141 0 164 -2 225 -24 93 -34
190 -111 249 -197 61 -89 81 -163 77 -275 -5 -107 -43 -189 -128 -278 -95 -98
-248 -159 -411 -162 -61 -1 -63 -2 -25 -10 100 -20 218 -3 313 45 55 28 167
141 205 207 45 77 60 142 55 250 -3 87 -7 104 -41 171 -61 124 -149 217 -257
273 -87 45 -220 57 -333 29z"/>
<path d="M5646 1919 c-110 -26 -244 -138 -292 -244 -53 -115 -50 -276 6 -391
56 -114 184 -207 324 -235 109 -22 267 19 349 90 272 240 155 715 -193 781
-63 12 -140 11 -194 -1z m252 -103 c67 -34 125 -94 165 -171 29 -56 32 -67 32
-161 0 -96 -2 -104 -35 -169 -42 -82 -109 -142 -197 -175 -86 -33 -209 -25
-298 19 -77 38 -135 101 -167 180 -32 79 -32 215 0 285 44 97 135 183 226 212
26 9 73 13 131 10 73 -2 100 -8 143 -30z"/>
<path d="M5642 1786 c-132 -43 -216 -162 -216 -306 0 -128 61 -226 174 -279
76 -36 202 -37 271 -3 58 28 123 93 152 152 33 67 31 194 -4 270 -33 68 -89
127 -148 153 -58 26 -170 32 -229 13z m158 -279 c14 -27 14 -29 -13 -53 -59
-51 -123 13 -74 74 18 23 70 10 87 -21z"/>
<path d="M4725 1236 l-140 -53 -3 -55 -3 -55 50 -21 c27 -11 52 -18 55 -14 3
3 6 22 6 42 l0 36 98 40 97 40 3 47 c2 34 -1 47 -10 47 -7 -1 -76 -25 -153
-54z"/>
</g>
</svg>
